<svg width="89.508" height="23.672" viewBox="0 0 89.508 23.672" xmlns="http://www.w3.org/2000/svg">
<g id="svgGroup" background="#ffffff"
stroke-linecap="round" fill-rule="evenodd" font-size="9pt" stroke="#000000" stroke-width="0.25mm" fill="#000000" style="stroke:#000000;stroke-width:0.25mm;fill:#000000"><path d="M 10.477 11.707 L 1.535 11.707 A 8.584 8.584 0 0 0 1.687 13.286 Q 1.867 14.199 2.26 14.922 A 4.64 4.64 0 0 0 2.731 15.627 A 3.739 3.739 0 0 0 5.456 17.06 A 4.83 4.83 0 0 0 5.824 17.074 A 9.047 9.047 0 0 0 6.85 17.019 Q 7.362 16.961 7.804 16.84 A 5.174 5.174 0 0 0 8.004 16.781 A 10.284 10.284 0 0 0 9.072 16.374 A 13.148 13.148 0 0 0 9.938 15.949 L 10.184 17.039 A 8.136 8.136 0 0 1 6.169 18.227 A 9.803 9.803 0 0 1 5.789 18.234 A 6.402 6.402 0 0 1 3.887 17.965 A 5.012 5.012 0 0 1 1.565 16.453 A 6.011 6.011 0 0 1 0.279 13.971 Q 0 12.91 0 11.625 A 9.262 9.262 0 0 1 0.234 9.49 A 6.569 6.569 0 0 1 1.53 6.809 Q 3.059 4.934 5.485 4.875 Q 7.746 4.875 9.117 6.492 Q 10.489 8.109 10.489 10.828 A 6.917 6.917 0 0 1 10.488 10.885 Q 10.487 10.976 10.485 11.145 A 89.532 89.532 0 0 1 10.483 11.256 A 70.191 70.191 0 0 0 10.48 11.404 Q 10.477 11.61 10.477 11.707 Z M 1.594 10.535 L 8.907 10.535 A 7.979 7.979 0 0 0 8.816 9.293 Q 8.714 8.643 8.495 8.12 A 3.553 3.553 0 0 0 7.981 7.248 Q 7.055 6.105 5.438 6.105 A 3.57 3.57 0 0 0 4.102 6.347 A 3.261 3.261 0 0 0 2.789 7.324 A 4.935 4.935 0 0 0 1.915 8.94 Q 1.698 9.596 1.611 10.373 A 8.817 8.817 0 0 0 1.594 10.535 Z" id="0" vector-effect="non-scaling-stroke"/><path d="M 13.746 17.953 L 12.106 17.953 L 16.899 11.449 L 12.258 5.109 L 13.875 5.109 L 17.625 10.406 L 21.352 5.109 L 23.004 5.109 L 18.375 11.496 L 23.098 17.953 L 21.539 17.953 L 17.637 12.504 L 13.746 17.953 Z" id="1" vector-effect="non-scaling-stroke"/><path d="M 32.965 10.512 L 32.965 9.082 Q 32.965 7.605 32.291 6.861 Q 31.761 6.275 30.725 6.151 A 4.997 4.997 0 0 0 30.129 6.117 Q 28.09 6.117 26.321 7.09 Q 26.274 6.973 26.104 6.58 A 15.752 15.752 0 0 1 26.025 6.395 Q 25.95 6.216 25.902 6.085 A 3.617 3.617 0 0 1 25.864 5.977 A 4.987 4.987 0 0 1 26.527 5.621 Q 26.864 5.47 27.262 5.34 A 10.046 10.046 0 0 1 27.762 5.191 A 9.01 9.01 0 0 1 29.564 4.89 A 8.123 8.123 0 0 1 30.059 4.875 A 8.511 8.511 0 0 1 31.224 4.949 Q 32.643 5.146 33.375 5.865 A 2.757 2.757 0 0 1 33.979 6.799 Q 34.328 7.646 34.376 8.95 A 11.636 11.636 0 0 1 34.383 9.375 L 34.383 17.953 L 33.246 17.953 Q 33.198 17.733 33.115 17.161 A 51.763 51.763 0 0 1 33.076 16.887 Q 32.965 16.09 32.965 16.066 A 4.807 4.807 0 0 1 29.481 18.187 A 6.407 6.407 0 0 1 28.688 18.234 A 5.863 5.863 0 0 1 27.476 18.116 Q 26.698 17.952 26.101 17.559 A 3.471 3.471 0 0 1 25.782 17.32 A 2.965 2.965 0 0 1 24.769 15.554 A 4.443 4.443 0 0 1 24.692 14.707 A 3.952 3.952 0 0 1 24.787 13.82 A 3.075 3.075 0 0 1 25.125 12.955 Q 25.559 12.211 26.385 11.748 A 6.864 6.864 0 0 1 27.509 11.25 A 8.547 8.547 0 0 1 28.272 11.027 A 12.387 12.387 0 0 1 29.266 10.831 Q 29.777 10.75 30.35 10.697 A 21.279 21.279 0 0 1 30.739 10.664 A 280.847 280.847 0 0 0 31.44 10.619 Q 32.409 10.556 32.952 10.513 A 39.735 39.735 0 0 0 32.965 10.512 Z M 32.93 13.734 L 32.93 11.543 Q 31.242 11.684 31.231 11.684 A 22.676 22.676 0 0 0 29.91 11.839 Q 28.093 12.111 27.258 12.621 A 2.205 2.205 0 0 0 26.185 14.216 A 3.183 3.183 0 0 0 26.145 14.73 Q 26.145 15.902 26.854 16.488 Q 27.563 17.074 28.735 17.074 A 4.293 4.293 0 0 0 31.401 16.189 A 4.028 4.028 0 0 0 32.812 14.162 A 5.217 5.217 0 0 0 32.93 13.734 Z" id="2" vector-effect="non-scaling-stroke"/><path d="M 39.364 17.953 L 37.91 17.953 A 63333.987 63333.987 0 0 1 37.902 15.204 Q 37.877 6.737 37.875 5.277 A 155.639 155.639 0 0 1 37.875 5.109 L 39.141 5.109 L 39.328 7.078 A 4.047 4.047 0 0 1 40.41 5.884 A 5.208 5.208 0 0 1 41.01 5.496 A 4.817 4.817 0 0 1 43.383 4.875 Q 45.333 4.875 46.364 5.846 A 3.387 3.387 0 0 1 47.25 7.301 Q 48.45 5.178 50.862 4.913 A 6.524 6.524 0 0 1 51.574 4.875 Q 53.006 4.875 53.922 5.428 A 2.929 2.929 0 0 1 54.674 6.076 Q 55.414 6.974 55.601 8.528 A 9.458 9.458 0 0 1 55.664 9.656 L 55.664 17.953 L 54.211 17.953 L 54.211 11.672 A 59.652 59.652 0 0 0 54.21 11.245 Q 54.205 10.652 54.189 10.213 A 20.959 20.959 0 0 0 54.188 10.184 Q 54.164 9.586 54.076 8.883 Q 54.013 8.377 53.901 8.004 A 2.996 2.996 0 0 0 53.807 7.734 Q 53.625 7.289 53.332 6.891 A 1.728 1.728 0 0 0 52.582 6.305 A 2.398 2.398 0 0 0 52.067 6.161 Q 51.83 6.121 51.56 6.118 A 4.04 4.04 0 0 0 51.504 6.117 A 4.143 4.143 0 0 0 50.199 6.315 A 3.542 3.542 0 0 0 49.002 6.99 A 4.117 4.117 0 0 0 47.956 8.379 A 5.742 5.742 0 0 0 47.578 9.445 A 107.709 107.709 0 0 0 47.591 10.009 Q 47.604 10.556 47.621 10.96 A 27.993 27.993 0 0 0 47.637 11.297 L 47.637 17.953 L 46.196 17.953 L 46.196 11.414 A 29.058 29.058 0 0 0 46.187 10.704 Q 46.179 10.354 46.161 10.043 A 15.341 15.341 0 0 0 46.137 9.686 Q 46.078 8.953 45.903 8.25 Q 45.76 7.681 45.537 7.281 A 2.533 2.533 0 0 0 45.428 7.102 Q 45.129 6.656 44.631 6.387 A 2.178 2.178 0 0 0 43.981 6.163 A 3.003 3.003 0 0 0 43.442 6.117 A 4.947 4.947 0 0 0 42.19 6.268 A 3.79 3.79 0 0 0 40.776 6.967 A 3.807 3.807 0 0 0 39.478 8.925 A 4.901 4.901 0 0 0 39.387 9.281 A 14.404 14.404 0 0 0 39.377 9.547 Q 39.364 9.984 39.364 10.652 L 39.364 17.953 Z" id="3" vector-effect="non-scaling-stroke"/><path d="M 60.481 23.566 L 59.028 23.672 L 59.028 5.109 L 60.328 5.109 L 60.457 6.938 A 8.735 8.735 0 0 1 61.238 6.146 Q 61.662 5.771 62.092 5.507 A 5.044 5.044 0 0 1 62.291 5.391 A 4.087 4.087 0 0 1 63.683 4.931 A 5.324 5.324 0 0 1 64.465 4.875 A 6.53 6.53 0 0 1 66.116 5.071 A 4.344 4.344 0 0 1 68.573 6.697 A 6.296 6.296 0 0 1 69.564 8.739 Q 69.938 10.027 69.938 11.684 A 9.435 9.435 0 0 1 69.722 13.756 A 6.535 6.535 0 0 1 68.496 16.4 Q 67.055 18.234 64.594 18.234 A 5.022 5.022 0 0 1 62.203 17.637 A 5.082 5.082 0 0 1 60.954 16.717 A 4.567 4.567 0 0 1 60.422 16.066 Q 60.481 17.508 60.481 18.902 L 60.481 23.566 Z M 64.5 17.039 A 3.516 3.516 0 0 0 65.571 16.881 A 3.097 3.097 0 0 0 66.27 16.559 Q 67.043 16.078 67.5 15.281 A 6.581 6.581 0 0 0 68.171 13.6 A 7.322 7.322 0 0 0 68.186 13.541 A 8.309 8.309 0 0 0 68.414 11.578 A 8.628 8.628 0 0 0 68.256 9.905 A 7.873 7.873 0 0 0 68.192 9.609 A 6.684 6.684 0 0 0 67.518 7.869 Q 67.067 7.066 66.282 6.586 A 3.283 3.283 0 0 0 64.798 6.117 A 4.023 4.023 0 0 0 64.489 6.105 A 5.085 5.085 0 0 0 63.592 6.181 Q 63.053 6.277 62.608 6.498 Q 61.817 6.891 61.354 7.617 A 5.026 5.026 0 0 0 60.784 8.874 A 5.939 5.939 0 0 0 60.68 9.27 A 8.102 8.102 0 0 0 60.522 10.254 A 10.962 10.962 0 0 0 60.469 11.355 A 15.156 15.156 0 0 0 60.506 12.441 Q 60.542 12.95 60.615 13.397 A 8.379 8.379 0 0 0 60.668 13.688 Q 60.867 14.684 61.319 15.463 A 2.927 2.927 0 0 0 62.567 16.641 A 3.596 3.596 0 0 0 63.479 16.946 Q 63.95 17.039 64.5 17.039 Z" id="4" vector-effect="non-scaling-stroke"/><path d="M 72.914 15.105 L 72.914 0.117 L 74.344 0 L 74.344 15.023 Q 74.344 16.195 74.772 16.641 A 1.337 1.337 0 0 0 75.325 16.98 Q 75.643 17.086 76.067 17.086 A 4.772 4.772 0 0 0 76.617 17.051 Q 76.883 17.02 77.185 16.961 A 11.313 11.313 0 0 0 77.824 16.816 L 77.883 17.941 Q 76.804 18.206 76.118 18.222 A 3.722 3.722 0 0 1 76.032 18.223 A 5.684 5.684 0 0 1 75.19 18.165 Q 74.203 18.017 73.664 17.49 Q 72.914 16.758 72.914 15.105 Z" id="5" vector-effect="non-scaling-stroke"/><path d="M 89.496 11.707 L 80.555 11.707 A 8.584 8.584 0 0 0 80.707 13.286 Q 80.887 14.199 81.28 14.922 A 4.64 4.64 0 0 0 81.75 15.627 A 3.739 3.739 0 0 0 84.476 17.06 A 4.83 4.83 0 0 0 84.844 17.074 A 9.047 9.047 0 0 0 85.87 17.019 Q 86.381 16.961 86.823 16.84 A 5.174 5.174 0 0 0 87.024 16.781 A 10.284 10.284 0 0 0 88.091 16.374 A 13.148 13.148 0 0 0 88.957 15.949 L 89.203 17.039 A 8.136 8.136 0 0 1 85.188 18.227 A 9.803 9.803 0 0 1 84.809 18.234 A 6.402 6.402 0 0 1 82.907 17.965 A 5.012 5.012 0 0 1 80.584 16.453 A 6.011 6.011 0 0 1 79.298 13.971 Q 79.02 12.91 79.02 11.625 A 9.262 9.262 0 0 1 79.253 9.49 A 6.569 6.569 0 0 1 80.549 6.809 Q 82.078 4.934 84.504 4.875 Q 86.766 4.875 88.137 6.492 Q 89.508 8.109 89.508 10.828 A 6.917 6.917 0 0 1 89.508 10.885 Q 89.507 10.976 89.504 11.145 A 89.532 89.532 0 0 1 89.502 11.256 A 70.191 70.191 0 0 0 89.5 11.404 Q 89.496 11.61 89.496 11.707 Z M 80.614 10.535 L 87.926 10.535 A 7.979 7.979 0 0 0 87.836 9.293 Q 87.733 8.643 87.514 8.12 A 3.553 3.553 0 0 0 87 7.248 Q 86.074 6.105 84.457 6.105 A 3.57 3.57 0 0 0 83.122 6.347 A 3.261 3.261 0 0 0 81.809 7.324 A 4.935 4.935 0 0 0 80.935 8.94 Q 80.718 9.596 80.63 10.373 A 8.817 8.817 0 0 0 80.614 10.535 Z" id="6" vector-effect="non-scaling-stroke"/></g></svg>